<?xml version="1.0" standalone="no"?>
<!DOCTYPE svg PUBLIC "-//W3C//DTD SVG 20010904//EN"
 "http://www.w3.org/TR/2001/REC-SVG-20010904/DTD/svg10.dtd">
<svg version="1.0" xmlns="http://www.w3.org/2000/svg"
 width="558.000000pt" height="558.000000pt" viewBox="0 0 558.000000 558.000000"
 preserveAspectRatio="xMidYMid meet">
<metadata>
Created by potrace 1.14, written by Peter Selinger 2001-2017
</metadata>
<g transform="translate(0.000000,558.000000) scale(0.100000,-0.100000)"
fill="#000000" stroke="none">
<path d="M0 5144 l0 -437 48 44 c26 24 237 219 470 433 232 214 422 390 422
392 0 2 -211 4 -470 4 l-470 0 0 -436z"/>
<path d="M843 4804 l-843 -776 0 -324 0 -324 1048 927 c576 510 1126 996 1222
1081 96 85 184 163 195 174 19 18 9 18 -380 18 l-400 0 -842 -776z"/>
<path d="M1623 4148 l-1618 -1431 -3 -351 -2 -350 27 26 c20 18 3999 3506
4032 3534 2 2 -181 4 -407 4 l-411 0 -1618 -1432z"/>
<path d="M2410 3467 l-2405 -2110 -3 -344 -2 -344 137 119 c76 66 1331 1149
2788 2406 l2650 2287 3 49 3 50 -383 -1 -383 -1 -2405 -2111z"/>
<path d="M2815 2439 c-1518 -1309 -2773 -2394 -2790 -2410 l-30 -29 390 0 390
0 2395 2066 c1317 1136 2398 2069 2403 2073 4 4 6 159 5 344 l-3 338 -2760
-2382z"/>
<path d="M3580 1759 c-1097 -946 -2004 -1729 -2015 -1740 -19 -19 -15 -19 362
-19 l381 0 1636 1408 1636 1407 0 333 c0 182 -1 332 -3 332 -1 0 -900 -774
-1997 -1721z"/>
<path d="M4328 1078 l-1247 -1073 375 -3 374 -2 875 752 875 753 0 322 c0 178
-1 323 -3 323 -1 0 -564 -483 -1249 -1072z"/>
<path d="M5089 423 l-486 -418 485 -3 c267 -1 487 -1 489 1 2 2 2 191 1 421
l-3 416 -486 -417z"/>
</g>
</svg>
